<?xml version="1.0" encoding="UTF-8" standalone="no"?>
<!DOCTYPE svg PUBLIC "-//W3C//DTD SVG 1.1//EN" "http://www.w3.org/Graphics/SVG/1.1/DTD/svg11.dtd">
<svg width="100%" height="100%" viewBox="0 0 1024 768" version="1.1" xmlns="http://www.w3.org/2000/svg"
     xml:space="preserve"
     style="fill-rule:evenodd;clip-rule:evenodd;stroke-linejoin:round;stroke-miterlimit:2;">
    <g transform="matrix(1,0,0,1,46.2671,-9.10016)">
        <path d="M182.462,531.48C167.586,532.423 159.83,526.279 148.891,482.887C143.339,460.868 125.377,412.766 118.057,385.582C115.626,376.553 118.306,369.748 126.287,364.877C145.231,353.315 187.881,334.011 220.321,336.227C262.373,339.099 267.361,364.346 304.821,366.013C352.271,368.124 367.065,352.605 398.191,352.768C429.316,352.931 427.073,364.675 454.394,362.252C481.714,359.83 520.424,339.06 545.724,337.573C571.024,336.086 581.903,346.648 592.019,347.164C602.135,347.68 641.896,505.011 586.36,506.691C472.769,510.127 307.213,523.566 182.462,531.48Z"/>
        <path d="M247.976,527.092C298.064,518.87 475.202,510.825 616.209,508.94C746.873,507.195 893.247,513.341 889.394,512.801C776.736,497.013 601.837,495.446 601.837,495.446C601.837,495.446 266.93,507.656 247.976,527.092Z"/>
        <g transform="matrix(1.03051,-0.0389057,0.0414896,1.09896,-23.1278,-36.5169)">
            <g transform="matrix(0.98884,-0.00389207,0.00389207,0.98884,0.581579,5.83577)">
                <path d="M182.716,504.923C193.801,505.137 238.356,505.122 252.07,505.112C254.624,505.11 256.224,502.784 256.544,500.719C259.02,484.768 266.77,415.367 268.407,400.642C268.604,398.87 267.694,397.516 265.454,397.348C248.271,396.066 191.092,392.827 151.728,396.868C150.809,396.963 149.216,398.04 149.803,400.291C153.837,415.773 170.974,480.279 176.102,499.573C177.023,503.04 179.88,504.868 182.716,504.923Z"
                      style="fill:white;"/>
            </g>
            <g transform="matrix(0.652955,0,0,0.956209,77.6703,16.9615)">
                <path d="M219.554,387.509C219.018,387.518 218.511,387.748 218.152,388.145C217.793,388.542 217.614,389.07 217.659,389.603L222.85,451.964C222.892,452.479 223.14,452.955 223.536,453.287C223.932,453.618 224.445,453.778 224.959,453.729L228.506,453.393C229.476,453.301 230.227,452.501 230.257,451.527L232.172,389.324C232.188,388.795 231.987,388.283 231.616,387.906C231.244,387.53 230.735,387.321 230.206,387.33L219.554,387.509Z"/>
            </g>
        </g>
        <g transform="matrix(1.02646,-0.0626189,0.0637107,1.09475,-31.0562,-28.2548)">
            <path d="M279.329,401.343C279.462,399.961 281.163,398.742 282.551,398.702C286.975,398.573 303.941,399.589 309.556,400.26C311.526,400.496 311.52,402.212 311.539,403.48C312.07,438.39 312.209,471.173 308.1,498.928C307.674,501.811 307.569,504.265 304.655,504.265C297.797,504.265 279.393,504.393 274.688,504.393C273.501,504.393 272.429,503.59 272.514,501.907C273.054,491.29 277.753,417.719 279.329,401.343Z"
                  style="fill:white;"/>
        </g>
        <g transform="matrix(1.00807,-0.0336823,0.0377226,1.11156,200.685,-55.3231)">
            <path d="M279.329,401.343C279.462,399.961 281.163,398.742 282.551,398.702C286.975,398.573 303.941,399.589 309.556,400.26C311.526,400.496 311.52,402.212 311.539,403.48C312.07,438.39 312.209,471.173 308.1,498.928C307.674,501.811 307.569,504.265 304.655,504.265C297.797,504.265 279.393,504.393 274.688,504.393C273.501,504.393 272.429,503.59 272.514,501.907C273.054,491.29 277.753,417.719 279.329,401.343Z"
                  style="fill:white;"/>
        </g>
        <g transform="matrix(1.03668,-0.0426585,0.0450394,1.10555,65.9503,-43.8602)">
            <path d="M324.299,399.876C324.341,397.997 325.757,396.838 327.343,396.724C349.135,395.159 368.667,395.305 388.851,396.76C390.267,396.862 390.558,398.151 390.495,399.569C390.307,403.827 389.447,419.296 388.985,427.534C388.808,430.688 386.969,432.763 384.984,433.104C382.8,433.478 377.386,433.407 377.386,433.407C377.386,433.407 373.372,489.697 371.8,500.202C371.447,502.561 370.418,504.141 368.536,504.167C359.529,504.293 332.897,504.645 326.247,504.524C322.807,504.462 321.734,501.907 322.193,499.573C324.461,488.057 336.075,434.639 336.075,434.639C336.075,434.639 329.348,434.404 327.177,434.221C325.747,434.1 324.409,432.893 324.393,430.937C324.331,423.417 324.191,404.702 324.299,399.876Z"
                  style="fill:white;"/>
        </g>
        <g transform="matrix(0.997583,0.0102181,-0.00474343,1.06361,-61.0523,-32.4771)">
            <g transform="matrix(0.989583,-0.0294913,0.0294913,0.989583,-18.7736,19.4776)">
                <path d="M403.485,395.021C403.037,409.932 402.461,471.259 402.277,491.868C402.233,496.784 405.032,498.362 408.739,498.424C421.127,498.631 471.298,496.339 484.653,495.715C486.744,495.617 487.509,493.7 487.156,491.848C485.762,484.527 478.504,450.488 478.504,450.488C478.504,450.488 465.361,446.845 462.298,445.921C459.905,445.199 460.153,442.398 462.22,441.86C465.606,440.978 479.125,437.645 484.693,436.274C486.151,435.914 487.214,434.735 487.348,433.327C488.863,417.344 488.182,404.603 486.049,390.056C485.455,386.003 482.99,383.016 479.759,382.978C458.762,382.727 427.337,384.858 406.373,390.37C404.013,390.991 403.533,393.424 403.485,395.021Z"
                      style="fill:white;"/>
            </g>
            <g transform="matrix(0.99988,0.015477,-0.015477,0.99988,-4.05864,-7.37617)">
                <path d="M426.405,411.049C425.497,411.208 424.851,412.019 424.899,412.939L425.407,422.609C425.434,423.13 425.683,423.615 426.092,423.939C426.5,424.264 427.029,424.399 427.543,424.308L467.21,417.318C468.091,417.163 468.729,416.391 468.716,415.497L468.573,405.825C468.566,405.292 468.324,404.788 467.914,404.448C467.503,404.108 466.963,403.965 466.438,404.057L426.405,411.049Z"/>
            </g>
            <g transform="matrix(-0.462153,-0.0211077,0.0309109,-0.676792,526.959,767.872)">
                <path d="M219.554,387.509C219.018,387.518 218.511,387.748 218.152,388.145C217.793,388.542 217.614,389.07 217.659,389.603L222.85,451.964C222.892,452.479 223.14,452.955 223.536,453.287C223.932,453.618 224.445,453.778 224.959,453.729L228.506,453.393C229.476,453.301 230.227,452.501 230.257,451.527L232.172,389.324C232.188,388.795 231.987,388.283 231.616,387.906C231.244,387.53 230.735,387.321 230.206,387.33L219.554,387.509Z"/>
            </g>
        </g>
        <g transform="matrix(0.447019,-0.259051,0.232781,0.401688,235.526,415.732)">
            <path d="M701.308,246.814C603.893,241.227 449.833,342.923 475.854,474.124C489.872,544.805 608.451,614.919 696.998,604.404C757.27,597.246 871.707,524.697 855.306,393.073C848.464,338.155 790.981,251.957 701.308,246.814ZM681.657,400.032C702.612,396.827 720.943,409.086 721.678,424.569C722.164,434.8 714.216,445.574 706.873,450.536C697.918,456.587 684.987,455.775 675.29,451.386C666.708,447.503 653.833,438.625 655.066,423.856C655.663,416.696 664.336,402.682 681.657,400.032Z"/>
        </g>
        <g transform="matrix(0.729007,-0.536774,0.482341,0.65508,-62.5044,496.428)">
            <path d="M684.727,341.859C635.247,343.665 597.165,374.785 592.242,420.104C587.43,464.403 625.929,504.773 679.328,503.832C714.904,503.206 759.52,474.289 763.551,429.619C768.032,379.964 730.16,340.2 684.727,341.859ZM683.444,389.778C711.234,388.345 723.109,408.778 721.085,425.21C719.835,435.36 715.038,443.882 707.695,448.844C698.74,454.895 688.21,458.624 677.976,456.178C661.233,452.176 649.904,438.384 649.851,422.719C649.794,405.894 665.979,390.679 683.444,389.778Z"
                  style="fill:rgb(240,84,84);"/>
        </g>
        <g transform="matrix(1,0,0,1,-26.7621,-8.5514)">
            <path d="M562.962,434.021C560.189,434.212 572.887,336.701 578.712,322.785C580.934,317.478 586.085,311.767 592.01,311.306C614.211,309.579 634.154,310.301 653.859,313.775C660.107,314.876 662.747,320.341 663.171,325.037C664.516,339.944 664.644,356.52 659.387,364.619C658.559,365.893 655.876,368.422 654.376,368.664C652.158,369.025 648.838,369.561 646.49,369.939C644.843,370.205 643.573,371.534 643.383,373.193C642.945,377.011 642.17,383.785 641.752,387.428C641.579,388.944 642.297,390.422 643.596,391.222C645.991,392.697 649.906,395.108 652.654,396.8C654.536,397.959 655.474,400.187 654.986,402.343C653.554,408.678 650.527,422.066 648.312,431.862C646.722,438.893 640.503,443.905 633.295,443.963C607.04,444.125 585.671,440.029 562.962,434.021Z"/>
        </g>
        <g transform="matrix(1,0,0,1,-26.7621,-8.5514)">
            <path d="M592.498,329.777C593.392,327.607 595.547,326.226 597.892,326.32C607.588,326.709 632.821,327.721 644.539,328.191C647.978,328.329 650.701,331.146 650.722,334.588C650.75,339.17 650.787,345.402 650.815,350.005C650.825,351.589 650.157,353.102 648.98,354.162C647.803,355.222 646.229,355.729 644.654,355.555C642.654,355.333 640.527,355.098 638.863,354.914C637.175,354.727 635.64,355.906 635.386,357.585C634.135,365.843 630.66,388.781 629.474,396.606C629.242,398.142 630.146,399.622 631.618,400.117C633.271,400.672 635.478,401.413 637.454,402.077C638.729,402.505 639.782,403.424 640.378,404.631C640.974,405.837 641.064,407.232 640.629,408.505C638.921,413.505 636.273,421.256 634.634,426.055C633.775,428.57 631.299,430.165 628.653,429.906C617.992,428.866 591.287,426.26 579.796,425.139C578.384,425.001 577.087,424.295 576.206,423.182C575.324,422.069 574.933,420.646 575.121,419.239C575.762,414.459 576.68,407.614 577.226,403.549C577.495,401.539 579.078,399.96 581.089,399.695C582.964,399.449 585.216,399.152 586.762,398.949C587.856,398.805 588.732,397.971 588.929,396.885C590.309,389.294 595.607,360.142 597.302,350.817C597.606,349.146 596.671,347.497 595.081,346.9C593.478,346.299 591.453,345.538 589.799,344.917C588.994,344.615 588.346,344 588.004,343.212C587.661,342.424 587.652,341.53 587.98,340.736C589.233,337.695 591.165,333.01 592.498,329.777Z"
                  style="fill:rgb(240,84,84);"/>
        </g>
        <path d="M665.843,299.857C663.827,304.497 660.598,309.57 656.537,314.436C652.153,319.689 646.839,324.719 640.939,328.677C639.14,329.824 638.611,332.216 639.759,334.015C640.906,335.814 643.298,336.343 645.097,335.196C651.849,331.107 658.026,325.818 663.145,320.199C669.257,313.49 673.793,306.263 676.131,300.031C676.51,298.998 676.699,297.476 675.65,295.697C675.32,295.136 674.409,294.091 672.896,292.928C670.137,290.81 664.437,287.242 660.171,284.639C660.17,284.639 679.909,263.399 679.909,263.399C681.479,261.707 681.698,259.165 680.441,257.229C680.441,257.229 672.148,244.389 657.588,235.611C649.199,230.553 638.771,226.85 626.704,227.496C607.714,228.519 594.029,240.294 579.838,255.764C564.749,272.213 548.845,292.912 522.848,306.344C508.964,313.518 492.173,318.588 471.058,319.828C465.323,320.165 460.252,319.376 455.634,318.012C447.549,315.623 440.779,311.532 434.32,308.323C428.51,305.438 422.898,303.23 417.025,302.849C408.018,302.265 400.354,302.916 393.52,304.343C380.281,307.106 370.207,312.822 359.459,318.268C346.799,324.681 333.086,330.629 310.708,329.486C294.749,328.674 285.166,322.024 275.6,314.906C268.22,309.413 260.851,303.647 251.262,299.397C243.031,295.749 233.194,293.19 220.364,292.903C204.042,292.539 181.416,297.094 159.455,307.257C140.986,315.804 123.03,328.305 109.527,344.608C103.143,352.382 101.72,359.312 103.075,364.421C104.912,371.35 111.805,375.959 121.293,375.427C123.425,375.338 125.084,373.536 124.995,371.404C124.907,369.272 123.104,367.613 120.973,367.701C115.966,367.836 111.937,366.101 111.075,362.423C110.311,359.163 112.029,355.069 116.214,350.263C129.143,335.289 146.259,324.154 163.606,316.358C184.092,307.151 204.982,302.639 220.13,303.002C231.345,303.271 239.952,305.472 247.142,308.672C258.455,313.709 266.379,321.117 275.296,327.264C284.641,333.706 294.947,338.913 310.185,339.697C324.383,340.428 335.442,338.583 344.94,335.557C355.899,332.064 364.728,326.956 373.956,322.376C385.447,316.674 397.626,311.872 416.358,313.095C422.111,313.471 427.46,316.306 433.28,319.329C439.191,322.4 445.484,325.735 452.72,327.874C458.391,329.549 464.62,330.503 471.662,330.087C494.458,328.739 512.57,323.204 527.557,315.453C554.768,301.38 571.589,279.905 587.374,262.673C599.573,249.357 610.922,238.549 627.256,237.654C637.07,237.112 645.538,240.183 652.368,244.286C660.69,249.284 666.643,255.817 669.683,259.612C669.683,259.612 648.629,282.343 648.629,282.343C647.595,283.458 647.123,284.983 647.347,286.488C647.572,287.993 648.468,289.314 649.783,290.079C649.783,290.079 660.603,296.269 665.843,299.857Z"/>
        <path d="M657.255,289.518C657.255,289.518 660.787,286.857 665.278,284.867C667.751,283.771 670.526,282.783 673.138,282.908C674.933,282.961 676.32,283.46 677.636,283.967C679.136,284.546 680.562,285.155 682.117,285.516C683.971,285.945 685.935,286.206 688.253,285.817C690.459,285.396 692.571,284.631 694.371,283.434C698.205,280.884 700.738,277.446 700.738,277.446C701.689,276.415 701.623,274.806 700.592,273.855C699.561,272.904 697.951,272.969 697.001,274.001C697.001,274.001 694.946,275.531 692.172,276.737C690.8,277.334 689.218,277.68 687.614,277.624C685.577,277.621 684.248,276.67 682.795,275.93C681.204,275.12 679.563,274.352 677.657,273.784C676.456,273.425 675.148,273.194 673.694,273.081C670.359,272.857 666.79,273.581 663.472,274.79C656.77,277.233 651.169,281.584 651.169,281.584C648.979,283.264 648.565,286.405 650.245,288.595C651.925,290.784 655.066,291.198 657.255,289.518Z"/>
        <path d="M619.013,251.493C617.728,251.791 616.407,252.177 615.067,252.643C612.599,253.503 610.184,254.689 607.861,256.124C604.867,257.973 602.197,260.303 600.051,262.897C597.52,265.957 595.936,269.499 595.257,273.094C594.33,278.414 596.067,283.279 599.523,287.149C603.598,291.712 610.295,294.79 617.531,295.241C625.769,295.719 632.497,293.339 637.676,289.745C644.508,285.004 648.598,278.062 649.952,272.504C651.135,267.627 650.508,260.884 645.427,255.7C641.57,251.765 634.844,248.512 623.46,248.655C621.497,248.678 619.809,249.834 619.013,251.493ZM619.337,256.389C616.94,257.887 614.53,259.8 612.286,261.924C610.288,263.814 608.536,265.912 607.085,268.107C605.728,270.161 604.706,272.31 604.41,274.559C603.964,277.593 605.621,280.137 608.046,282.005C610.682,284.036 614.281,285.272 618.074,285.457C623.779,285.759 628.443,284.14 632.016,281.634C636.558,278.448 639.365,273.878 640.25,270.166C640.877,267.551 640.332,263.757 636.608,261.382C633.812,259.6 629.615,258.586 623.581,258.654C621.809,258.675 620.24,257.771 619.337,256.389Z"/>
        <path d="M620.487,260.594C620.487,260.594 616.54,263.477 617.076,271.047C617.71,280.002 624.201,282.563 624.201,282.563C624.201,282.563 628.294,279.099 627.661,270.464C626.962,260.912 620.487,260.594 620.487,260.594Z"/>
    </g>
</svg>
